<svg width="28" height="26" viewBox="0 0 28 26" fill="none" xmlns="http://www.w3.org/2000/svg">
<path d="M13.573 0C14.0872 0 14.5804 0.195663 14.9441 0.543945C15.3077 0.892227 15.512 1.3646 15.512 1.85714V11.1429H25.207C25.7212 11.1429 26.2144 11.3385 26.578 11.6868C26.9417 12.0351 27.1459 12.5075 27.1459 13C27.1459 13.4925 26.9417 13.9649 26.578 14.3132C26.2144 14.6615 25.7212 14.8571 25.207 14.8571H15.512V24.1429C15.512 24.6354 15.3077 25.1078 14.9441 25.4561C14.5804 25.8043 14.0872 26 13.573 26C13.0587 26 12.5655 25.8043 12.2019 25.4561C11.8383 25.1078 11.634 24.6354 11.634 24.1429V14.8571H1.939C1.42474 14.8571 0.931552 14.6615 0.567919 14.3132C0.204287 13.9649 0 13.4925 0 13C0 12.5075 0.204287 12.0351 0.567919 11.6868C0.931552 11.3385 1.42474 11.1429 1.939 11.1429H11.634V1.85714C11.634 1.3646 11.8383 0.892227 12.2019 0.543945C12.5655 0.195663 13.0587 0 13.573 0Z" fill="white"/>
</svg>
