<svg width="36" height="36" viewBox="0 0 36 36" fill="none" xmlns="http://www.w3.org/2000/svg">
    <path d="M6.80176 19.0002L20.2474 5.18243C20.3581 5.07108 20.4456 4.93887 20.5049 4.79347C20.5642 4.64807 20.594 4.49236 20.5927 4.33535C20.5914 4.17834 20.559 4.02314 20.4973 3.87875C20.4356 3.73435 20.3459 3.60362 20.2334 3.49412C20.1209 3.38463 19.9877 3.29853 19.8417 3.24082C19.6957 3.18312 19.5397 3.15494 19.3827 3.15793C19.2257 3.16092 19.0708 3.19501 18.9271 3.25824C18.7834 3.32146 18.6536 3.41256 18.5453 3.52626L4.29535 18.1721C4.07966 18.3938 3.95898 18.6909 3.95898 19.0002C3.95898 19.3095 4.07966 19.6066 4.29535 19.8283L18.5453 34.4741C18.6536 34.5878 18.7834 34.6789 18.9271 34.7421C19.0708 34.8053 19.2257 34.8394 19.3827 34.8424C19.5397 34.8454 19.6957 34.8172 19.8417 34.7595C19.9877 34.7018 20.1209 34.6157 20.2334 34.5062C20.3459 34.3967 20.4356 34.266 20.4973 34.1216C20.559 33.9772 20.5914 33.822 20.5927 33.665C20.594 33.508 20.5642 33.3523 20.5049 33.2069C20.4456 33.0615 20.3581 32.9293 20.2474 32.8179L6.80176 19.0002Z" fill="white"/>
</svg>
