<svg width="38" height="39" viewBox="0 0 38 39" fill="none" xmlns="http://www.w3.org/2000/svg">
    <path d="M6.80176 19.1638L20.2474 5.346C20.3581 5.23465 20.4456 5.10245 20.5049 4.95705C20.5642 4.81165 20.594 4.65594 20.5927 4.49892C20.5914 4.34191 20.559 4.18672 20.4973 4.04232C20.4356 3.89793 20.3459 3.7672 20.2334 3.6577C20.1209 3.5482 19.9877 3.4621 19.8417 3.4044C19.6957 3.34669 19.5397 3.31852 19.3827 3.3215C19.2257 3.32449 19.0708 3.35859 18.9271 3.42181C18.7834 3.48503 18.6536 3.57613 18.5453 3.68984L4.29535 18.3357C4.07966 18.5574 3.95898 18.8545 3.95898 19.1638C3.95898 19.4731 4.07966 19.7701 4.29535 19.9918L18.5453 34.6377C18.6536 34.7514 18.7834 34.8425 18.9271 34.9057C19.0708 34.9689 19.2257 35.003 19.3827 35.006C19.5397 35.009 19.6957 34.9808 19.8417 34.9231C19.9877 34.8654 20.1209 34.7793 20.2334 34.6698C20.3459 34.5603 20.4356 34.4296 20.4973 34.2852C20.559 34.1408 20.5914 33.9856 20.5927 33.8286C20.594 33.6716 20.5642 33.5159 20.5049 33.3705C20.4456 33.2251 20.3581 33.0929 20.2474 32.9815L6.80176 19.1638Z" fill="black"/>
</svg>
