<svg width="264" height="500" viewBox="0 0 264 500" fill="none" xmlns="http://www.w3.org/2000/svg">
<g clip-path="url(#clip0_1199_29)">
<path id="head_left_back" d="M108.143 34.3555L110.215 47.3329C109.473 46.8585 108.301 45.9575 107.344 44.4575C106.09 42.4879 105.937 40.6189 105.908 40.1445C105.86 39.3921 105.803 38.1845 106.387 36.7899C106.899 35.5631 107.669 34.7724 108.143 34.3555Z" fill="#D9D9D9"/>
<path id="head_back" d="M148.98 5.83212C143.214 0.445626 135.486 -0.0431848 131.753 -5.44603e-05V0.0478681C127.939 0.0239068 120.412 0.60377 114.766 5.88004C106.42 13.677 107.899 26.4005 109.023 36.0713C109.76 42.4114 110.789 51.2771 117.637 59.5533C122.513 65.443 128.222 68.4813 131.753 69.9908V70.0436C131.753 70.0436 131.796 70.0244 131.816 70.0148C131.873 70.0388 131.935 70.0675 131.993 70.0915V69.9381C135.524 68.4286 141.233 65.3903 146.109 59.5006C152.957 51.2244 153.986 42.3587 154.723 36.0185C155.847 26.3478 157.326 13.6243 148.98 5.82733V5.83212Z" fill="#D9D9D9"/>
<path id="head_right_back" d="M155.776 34.2646L153.704 47.2421C154.445 46.7676 155.618 45.8667 156.575 44.3667C157.829 42.3971 157.982 40.5281 158.01 40.0537C158.058 39.3013 158.116 38.0937 157.532 36.6991C157.02 35.4723 156.249 34.6816 155.776 34.2646Z" fill="#D9D9D9"/>
<path d="M96.5576 81.3631C96.5576 81.3631 59.7109 67.4655 64.4962 126.889C64.4962 126.889 100.864 112.034 96.5576 81.3631Z" fill="#D9D9D9"/>
<path d="M64.0653 128.859C64.0653 128.859 73.5115 125.5 80.4884 120.444C80.4884 120.444 90.8151 155.643 73.588 179.125C72.5257 178.583 70.3053 177.635 67.3672 177.687C64.6826 177.735 62.6536 178.593 61.6057 179.125C61.8832 177.989 62.2277 175.881 61.6248 173.374C60.706 169.579 58.2081 167.379 57.318 166.665C56.4567 160.632 55.959 151.105 59.2322 140.308C60.596 135.808 62.3426 131.984 64.0653 128.859Z" fill="#D9D9D9"/>
<path d="M26.2139 239.987C26.2139 239.987 35.9376 197.834 56.6771 170.029C56.6771 170.029 59.7109 173.854 60.668 181.521C60.668 181.521 67.8459 179.125 73.1098 181.042C73.1098 181.042 79.3307 195.898 33.3918 244.3C33.3918 244.3 27.6495 244.3 26.2139 239.987Z" fill="#D9D9D9"/>
<path d="M32.4348 245.258C31.7888 245.272 29.2526 245.244 27.171 243.341C26.0464 242.316 25.5105 241.156 25.2569 240.466C24.2137 240.466 21.2994 240.576 18.2273 242.306C18.2225 242.306 18.2177 242.306 18.2129 242.306L3.61296 248.229C2.51234 248.675 1.98117 249.935 2.4262 251.038C2.87124 252.14 4.12977 252.672 5.23039 252.226L12.0207 249.475C11.9585 249.638 11.8963 249.792 11.8437 249.94L0.708283 260.152C-0.167426 260.958 -0.229635 262.318 0.574295 263.2C1.37822 264.082 2.73725 264.14 3.61774 263.334L13.3415 254.421C13.4563 254.569 13.5759 254.723 13.6956 254.876L1.17246 266.363C0.296748 267.168 0.234539 268.529 1.03847 269.411C1.8424 270.288 3.20142 270.35 4.08192 269.545L16.5668 258.097C16.7247 258.25 16.8826 258.408 17.0405 258.557L7.20193 267.58C6.32622 268.385 6.26401 269.746 7.06794 270.628C7.87187 271.505 9.2309 271.568 10.1114 270.762L20.4046 261.322C20.5338 261.413 20.6582 261.499 20.7874 261.59L13.4372 268.328C12.638 269.061 12.5854 270.302 13.3175 271.098L13.5807 271.385C14.3129 272.186 15.5523 272.238 16.3466 271.505L28.3242 260.521C28.4821 260.378 28.6018 260.205 28.7023 260.028C29.9656 258.772 33.2004 255.47 33.4062 250.525C33.4971 248.33 32.9612 246.509 32.4492 245.253L32.4348 245.258Z" fill="#D9D9D9"/>
<path d="M167.447 81.4827C167.447 81.4827 204.294 67.5852 199.509 127.009C199.509 127.009 163.14 112.153 167.447 81.4827Z" fill="#D9D9D9"/>
<path d="M199.934 128.979C199.934 128.979 190.488 125.619 183.511 120.563C183.511 120.563 173.185 155.763 190.412 179.245C191.474 178.703 193.694 177.754 196.632 177.807C199.317 177.855 201.346 178.713 202.394 179.245C202.116 178.109 201.772 176 202.375 173.494C203.294 169.698 205.792 167.499 206.682 166.785C207.543 160.751 208.041 151.224 204.768 140.427C203.404 135.927 201.657 132.103 199.934 128.979Z" fill="#D9D9D9"/>
<path d="M237.791 240.106C237.791 240.106 228.067 197.954 207.328 170.149C207.328 170.149 204.294 173.973 203.337 181.641C203.337 181.641 196.159 179.245 190.895 181.162C190.895 181.162 184.674 196.018 230.613 244.419C230.613 244.419 236.355 244.419 237.791 240.106Z" fill="#D9D9D9"/>
<path d="M231.57 245.378C232.216 245.392 234.752 245.363 236.834 243.461C237.958 242.435 238.494 241.276 238.748 240.585C239.791 240.585 242.705 240.696 245.777 242.426C245.782 242.426 245.787 242.426 245.792 242.426L260.392 248.349C261.492 248.795 262.024 250.055 261.579 251.157C261.134 252.259 259.875 252.791 258.774 252.346L251.984 249.595C252.046 249.758 252.108 249.911 252.161 250.06L263.296 260.272C264.172 261.077 264.234 262.438 263.43 263.32C262.627 264.202 261.267 264.259 260.387 263.454L250.663 254.541C250.548 254.689 250.429 254.842 250.309 254.996L262.832 266.483C263.708 267.288 263.77 268.649 262.966 269.531C262.162 270.408 260.803 270.47 259.923 269.665L247.438 258.216C247.28 258.37 247.122 258.528 246.964 258.676L256.803 267.7C257.679 268.505 257.741 269.866 256.937 270.748C256.133 271.625 254.774 271.687 253.893 270.882L243.6 261.441C243.471 261.532 243.347 261.619 243.217 261.71L250.568 268.448C251.367 269.181 251.419 270.422 250.687 271.218L250.424 271.505C249.692 272.305 248.452 272.358 247.658 271.625L235.681 260.641C235.523 260.497 235.403 260.325 235.302 260.147C234.039 258.892 230.804 255.59 230.599 250.644C230.508 248.45 231.044 246.628 231.556 245.373L231.57 245.378Z" fill="#D9D9D9"/>
<path id="left_shoulder_back" d="M119.293 64.0054C119.293 64.0054 115.943 78.8614 99.1943 81.2575C99.5149 85.0434 99.668 92.8739 95.8446 101.629C92.3609 109.604 87.2263 114.559 84.3599 116.965C84.9963 121.436 85.6375 125.912 86.274 130.383C92.0594 131.404 99.8212 133.407 108.286 137.571C118.785 142.737 126.174 149.164 130.777 153.865C130.457 132.06 130.141 110.255 129.82 88.4459V72.1522C129.82 72.1522 121.207 67.8392 119.293 64.0054Z" fill="#D9D9D9"/>
<path id="right_shoulder_back" d="M144.655 63.8569C144.655 63.8569 148.004 78.7129 164.753 81.1091C164.432 84.8949 164.279 92.7255 168.103 101.481C171.586 109.455 176.721 114.41 179.587 116.816C178.951 121.287 178.31 125.763 177.673 130.234C171.888 131.255 164.126 133.258 155.661 137.423C145.162 142.589 137.773 149.015 133.17 153.717C133.491 131.912 133.806 110.107 134.127 88.2974C134.127 82.8678 134.127 77.4334 134.127 72.0038C134.127 72.0038 142.741 67.6907 144.655 63.8569Z" fill="#D9D9D9"/>
<path id="left_back_back" d="M86.7524 133.253C90.1452 140.461 93.8443 150.462 95.5478 162.783C98.6965 185.59 93.2892 204.064 89.6236 213.763C93.3514 212.642 101.132 210.845 110.679 212.805C121.044 214.933 127.863 220.329 130.777 222.94V158.652C125.963 153.41 118.149 146.193 106.851 140.442C99.2995 136.598 92.2938 134.475 86.7524 133.253Z" fill="#FD6C01"/>
<path d="M89.1453 216.159C92.8013 214.918 99.1083 213.342 106.851 214.243C119.652 215.728 127.945 223.008 130.777 225.744V278.531C126.92 280.639 114.914 286.562 99.1944 284.209C85.7095 282.192 76.8423 275.19 73.3921 272.147C72.6983 265.237 72.4303 253.577 76.7036 240.121C80.1537 229.252 85.2979 221.23 89.1453 216.159Z" fill="#D9D9D9"/>
<path d="M73.3921 276.024C77.2108 279.044 86.3124 285.403 99.6729 287.085C114.914 289.007 126.538 283.692 130.777 281.492C131.309 294.019 131.093 308.502 129.342 324.465C127.983 336.824 125.925 348.052 123.599 358.01C122.685 356.946 117.632 351.258 109.244 350.822C103.142 350.506 98.6919 353.146 97.1319 354.177C92.562 345.349 87.9202 334.945 83.8815 323.027C77.8951 305.363 74.8899 289.261 73.3921 276.024Z" fill="#D9D9D9"/>
<path d="M97.2801 356.573C98.7922 355.561 103.185 352.921 109.243 353.218C117.259 353.611 122.164 358.858 123.121 359.927C126.379 379.058 126.528 394.546 125.992 405.454C125.475 415.958 124.197 424.872 122.164 452.897C121.738 458.763 121.417 463.588 121.207 466.794H109.243C106.133 456.956 101.74 442.665 96.8016 425.102C92.9398 411.362 92.1072 407.591 91.5377 403.537C90.0926 393.243 89.7863 377.251 97.2801 356.573Z" fill="#D9D9D9"/>
<path d="M109.54 468.711L121.695 468.846C121.671 470.791 121.647 473.739 121.685 477.337C121.762 484.655 121.987 484.813 121.685 486.922C120.656 494.106 117.249 497.815 115.474 499.037C115.182 499.238 114.905 499.396 114.89 499.401C113.904 499.89 112.445 500.014 108.296 499.995C103.874 499.976 101.611 499.957 99.2039 499.516C95.6868 498.874 93.9306 498.553 93.4616 497.599C92.672 495.994 94.6436 492.294 106.382 483.222C107.315 481.713 108.578 479.274 109.253 476.034C109.885 473.001 109.756 470.422 109.54 468.711Z" fill="#D9D9D9"/>
<path id="right_back_back" d="M176.845 133.071C173.453 140.279 169.754 150.28 168.05 162.601C164.901 185.408 170.309 203.882 173.969 213.581C170.242 212.46 162.461 210.663 152.914 212.623C142.549 214.75 135.73 220.147 132.816 222.758C132.816 201.327 132.816 179.896 132.816 158.47C137.63 153.228 145.444 146.01 156.742 140.26C164.294 136.416 171.299 134.293 176.841 133.071H176.845Z" fill="#FD6C01"/>
<path d="M174.453 215.977C170.797 214.736 164.49 213.159 156.747 214.06C143.947 215.546 135.654 222.825 132.821 225.562C132.821 243.159 132.821 260.751 132.821 278.349C136.678 280.457 148.684 286.38 164.404 284.027C177.889 282.01 186.756 275.008 190.206 271.965C190.9 265.055 191.168 253.395 186.895 239.939C183.444 229.07 178.3 221.047 174.453 215.977Z" fill="#D9D9D9"/>
<path d="M190.211 275.842C186.392 278.861 177.291 285.221 163.93 286.903C148.689 288.825 137.065 283.51 132.826 281.31C132.294 293.837 132.51 308.319 134.261 324.282C135.62 336.642 137.678 347.87 140.004 357.828C140.918 356.764 145.971 351.076 154.359 350.64C160.461 350.324 164.911 352.964 166.471 353.994C171.041 345.167 175.683 334.763 179.722 322.845C185.708 305.18 188.713 289.078 190.211 275.842Z" fill="#D9D9D9"/>
<path d="M166.318 356.39C164.806 355.379 160.413 352.739 154.354 353.036C146.339 353.429 141.434 358.676 140.477 359.745C137.218 378.876 137.07 394.364 137.606 405.271C138.123 415.776 139.4 424.69 141.434 452.715C141.86 458.581 142.181 463.406 142.391 466.612C146.377 466.612 150.368 466.612 154.354 466.612C157.465 456.774 161.858 442.483 166.796 424.92C170.658 411.18 171.491 407.409 172.06 403.355C173.505 393.061 173.811 377.069 166.318 356.39Z" fill="#D9D9D9"/>
<path d="M154.058 468.529L141.903 468.663C141.927 470.609 141.951 473.556 141.913 477.155C141.836 484.473 141.611 484.631 141.913 486.74C142.942 493.923 146.349 497.633 148.124 498.855C148.416 499.056 148.694 499.214 148.708 499.219C149.694 499.708 151.153 499.832 155.302 499.813C159.724 499.794 161.987 499.775 164.394 499.334C167.911 498.692 169.668 498.371 170.137 497.417C170.926 495.812 168.955 492.112 157.216 483.04C156.283 481.531 155.02 479.091 154.345 475.852C153.713 472.818 153.843 470.24 154.058 468.529Z" fill="#D9D9D9"/>
</g>
<defs>
<clipPath id="clip0_1199_29">
<rect width="264" height="500" fill="white"/>
</clipPath>
</defs>
</svg>
