<svg width="265" height="500" viewBox="0 0 265 500" fill="none" xmlns="http://www.w3.org/2000/svg">
<g clip-path="url(#clip0_1199_2)">
<path id="head_left" d="M108.769 34.4072L110.848 47.4042C110.104 46.9291 108.927 46.0268 107.966 44.5245C106.708 42.5519 106.554 40.6801 106.525 40.205C106.477 39.4515 106.42 38.242 107.006 36.8454C107.52 35.6167 108.293 34.8248 108.769 34.4072Z" fill="#D9D9D9"/>
<path id="head" d="M149.761 5.84091C143.973 0.446301 136.215 -0.0432462 132.469 -5.08633e-05V0.0479439C128.64 0.0239465 121.085 0.604684 115.417 5.88891C107.039 13.6977 108.524 26.4403 109.652 36.1256C110.392 42.4753 111.425 51.3544 118.299 59.6431C123.193 65.5416 128.924 68.5845 132.469 70.0963V70.1491C132.469 70.1491 132.512 70.1299 132.531 70.1203C132.589 70.1443 132.651 70.1731 132.709 70.1971V70.0435C136.254 68.5317 141.984 65.4888 146.879 59.5903C153.753 51.3016 154.785 42.4225 155.525 36.0728C156.654 26.3875 158.138 13.6449 149.761 5.83611V5.84091Z" fill="#D9D9D9"/>
<path id="head_right" d="M156.582 34.3164L154.502 47.3134C155.246 46.8382 156.423 45.9359 157.384 44.4337C158.643 42.4611 158.796 40.5893 158.825 40.1142C158.873 39.3607 158.931 38.1512 158.345 36.7545C157.831 35.5259 157.057 34.734 156.582 34.3164Z" fill="#D9D9D9"/>
<path id="left_shoulder" d="M119.98 63.2476C119.98 63.2476 116.618 78.1259 99.8057 80.5257C99.8057 80.5257 114.216 89.1647 130.548 87.7249V71.4067C130.548 71.4067 121.901 67.0871 119.98 63.2476Z" fill="#D9D9D9"/>
<path id="right_shoulder" d="M144.958 63.3481C144.958 63.3481 148.32 78.2265 165.132 80.6263C165.132 80.6263 150.722 89.2653 134.39 87.8255V71.5073C134.39 71.5073 143.036 67.1877 144.958 63.3481Z" fill="#D9D9D9"/>
<path id="left_arm" d="M99.8054 83.9766C99.8054 83.9766 115.176 93.11 130.547 91.6173V142.943C130.547 142.943 81.5524 149.158 83.9542 117.962C83.9542 117.962 103.168 103.755 99.8054 83.9814V83.9766Z" fill="#D9D9D9"/>
<path id="right_arm" d="M165.132 84.1875C165.132 84.1875 149.761 93.3209 134.39 91.8283V143.154C134.39 143.154 183.385 149.369 180.983 118.173C180.983 118.173 161.77 103.966 165.132 84.1923V84.1875Z" fill="#D9D9D9"/>
<path d="M96.9234 80.5258C96.9234 80.5258 59.937 66.6073 64.7405 126.121C64.7405 126.121 101.246 111.242 96.9234 80.5258Z" fill="#D9D9D9"/>
<path d="M64.3081 128.089C64.3081 128.089 73.7901 124.724 80.7935 119.661C80.7935 119.661 91.1593 154.913 73.8669 178.43C72.8006 177.888 70.5718 176.938 67.6225 176.99C64.9278 177.038 62.8911 177.897 61.8392 178.43C62.1178 177.293 62.4636 175.181 61.8584 172.671C60.9361 168.87 58.4287 166.667 57.5353 165.952C56.6707 159.909 56.1711 150.368 59.4567 139.554C60.8257 135.048 62.5789 131.218 64.3081 128.089Z" fill="#D9D9D9"/>
<path d="M26.313 239.388C26.313 239.388 36.0735 197.172 56.8916 169.326C56.8916 169.326 59.9369 173.156 60.8976 180.835C60.8976 180.835 68.1028 178.435 73.3865 180.355C73.3865 180.355 79.631 195.233 33.5181 243.708C33.5181 243.708 27.754 243.708 26.313 239.388Z" fill="#D9D9D9"/>
<path d="M32.5576 244.668C31.9092 244.682 29.3633 244.653 27.2739 242.748C26.1451 241.721 25.6071 240.559 25.3525 239.868C24.3053 239.868 21.3801 239.979 18.2963 241.711C18.2915 241.711 18.2867 241.711 18.2818 241.711L3.62661 247.643C2.52182 248.09 1.98864 249.352 2.43536 250.456C2.88208 251.56 4.14538 252.092 5.25016 251.646L12.0662 248.891C12.0038 249.054 11.9413 249.208 11.8885 249.357L0.710931 259.584C-0.168095 260.391 -0.23054 261.754 0.576435 262.637C1.38341 263.52 2.74758 263.578 3.63141 262.771L13.392 253.844C13.5072 253.993 13.6273 254.147 13.7474 254.3L1.17686 265.805C0.297837 266.611 0.235392 267.974 1.04237 268.857C1.84934 269.735 3.21351 269.798 4.09734 268.991L16.6295 257.525C16.788 257.679 16.9465 257.837 17.105 257.986L7.22917 267.024C6.35015 267.83 6.2877 269.193 7.09468 270.076C7.90165 270.954 9.26583 271.017 10.1497 270.21L20.4818 260.755C20.6115 260.847 20.7364 260.933 20.8661 261.024L13.488 267.772C12.6859 268.507 12.633 269.75 13.3679 270.546L13.6321 270.834C14.3671 271.636 15.6111 271.689 16.4085 270.954L28.4315 259.954C28.59 259.81 28.7101 259.637 28.8109 259.46C30.0791 258.202 33.3262 254.895 33.5327 249.942C33.624 247.744 33.086 245.92 32.572 244.663L32.5576 244.668Z" fill="#D9D9D9"/>
<path d="M168.081 80.6455C168.081 80.6455 205.068 66.727 200.264 126.241C200.264 126.241 163.758 111.362 168.081 80.6455Z" fill="#D9D9D9"/>
<path d="M200.692 128.209C200.692 128.209 191.21 124.844 184.206 119.781C184.206 119.781 173.841 155.033 191.133 178.55C192.199 178.008 194.428 177.058 197.377 177.111C200.072 177.159 202.109 178.018 203.161 178.55C202.882 177.413 202.536 175.301 203.142 172.791C204.064 168.99 206.571 166.787 207.465 166.072C208.329 160.029 208.829 150.488 205.543 139.675C204.174 135.168 202.421 131.338 200.692 128.209Z" fill="#D9D9D9"/>
<path d="M238.692 239.508C238.692 239.508 228.931 197.292 208.113 169.445C208.113 169.445 205.068 173.275 204.107 180.954C204.107 180.954 196.902 178.555 191.618 180.475C191.618 180.475 185.374 195.353 231.486 243.828C231.486 243.828 237.251 243.828 238.692 239.508Z" fill="#D9D9D9"/>
<path d="M232.447 244.788C233.096 244.802 235.641 244.773 237.731 242.868C238.86 241.841 239.398 240.679 239.652 239.988C240.699 239.988 243.625 240.099 246.709 241.831C246.713 241.831 246.718 241.831 246.723 241.831L261.378 247.763C262.483 248.21 263.016 249.472 262.569 250.576C262.123 251.68 260.859 252.213 259.755 251.766L252.939 249.011C253.001 249.174 253.063 249.328 253.116 249.477L264.294 259.705C265.173 260.511 265.235 261.874 264.428 262.757C263.621 263.64 262.257 263.698 261.373 262.891L251.613 253.964C251.498 254.113 251.377 254.267 251.257 254.42L263.828 265.925C264.707 266.731 264.769 268.094 263.962 268.977C263.155 269.855 261.791 269.918 260.907 269.112L248.375 257.646C248.217 257.799 248.058 257.958 247.9 258.106L257.776 267.144C258.655 267.95 258.717 269.313 257.91 270.196C257.103 271.074 255.739 271.137 254.855 270.331L244.523 260.876C244.393 260.967 244.268 261.053 244.139 261.144L251.517 267.892C252.319 268.627 252.372 269.87 251.637 270.667L251.373 270.955C250.638 271.756 249.394 271.809 248.596 271.074L236.573 260.074C236.415 259.93 236.295 259.757 236.194 259.58C234.926 258.322 231.679 255.015 231.472 250.062C231.381 247.864 231.919 246.04 232.433 244.783L232.447 244.788Z" fill="#D9D9D9"/>
<path id="chest" d="M150.289 147.238C142.489 148.078 136.182 148.198 132.464 148.198C128.842 148.198 122.626 148.069 114.917 147.238C108.86 146.586 101.506 145.458 93.2534 143.447C93.9979 154.217 95.5158 165.779 98.1481 177.955C98.7822 180.902 99.4642 183.782 100.18 186.594C105.003 187.924 110.627 189.147 116.949 189.954C122.641 190.678 127.857 190.928 132.459 190.914C137.133 190.938 142.445 190.693 148.253 189.954C154.579 189.147 160.204 187.924 165.021 186.594C165.737 183.782 166.419 180.902 167.053 177.955C169.685 165.779 171.203 154.217 171.948 143.447C163.696 145.458 156.342 146.586 150.284 147.238H150.289Z" fill="#D9D9D9"/>
<path id="stomach" d="M164.791 202.317C164.027 196.98 164.296 192.353 164.791 188.878C161.001 190.481 155.972 192.19 149.9 193.198C149.9 193.198 149.718 193.227 149.497 193.26C130.59 196.154 115.176 193.198 115.176 193.198C111.348 192.464 106.203 191.197 100.286 188.878C100.78 192.353 101.049 196.98 100.286 202.317C99.8389 205.441 99.1232 208.177 98.3643 210.476C98.9599 218.347 101.169 233.307 110.853 248.872C118.063 260.458 126.632 267.911 132.469 272.212H132.608C138.444 267.911 147.013 260.458 154.223 248.872C163.907 233.307 166.117 218.347 166.712 210.476C165.953 208.177 165.238 205.441 164.791 202.317Z" fill="#D9D9D9"/>
<path d="M96.443 212.991C97.5286 221.486 100.632 236.48 110.853 251.867C117.631 262.066 125.278 269.035 131.028 273.465C131.94 283.803 132.248 296.133 131.028 309.941C129.5 327.233 126.013 341.992 122.381 353.616C119.937 347.338 113.654 343.609 107.491 344.497C102.423 345.226 98.1242 348.975 96.443 354.096C92.4898 344.689 86.9899 330.622 81.5524 312.82C79.7319 306.85 78.8288 303.865 77.945 300.111C75.3848 289.221 70.8504 269.687 76.749 248.027C78.7712 240.607 83.6515 226.948 96.443 212.991Z" fill="#D9D9D9"/>
<path d="M109.172 378.093C115.937 378.093 121.421 371.002 121.421 362.255C121.421 353.508 115.937 346.417 109.172 346.417C102.407 346.417 96.9233 353.508 96.9233 362.255C96.9233 371.002 102.407 378.093 109.172 378.093Z" fill="#D9D9D9"/>
<path d="M96.9235 372.818C97.1493 373.25 100.79 379.936 107.971 380.488C114.177 380.968 120.316 376.658 122.382 369.929C123.376 374.868 124.716 382.734 125.264 392.487C125.975 405.095 124.918 413.038 122.862 436.642C122.281 443.294 121.416 453.584 120.46 466.399H108.26C104.571 450.992 101.002 438.586 98.3645 429.923C93.4603 413.825 90.362 406.055 91.1594 394.407C91.7935 385.182 94.5843 377.752 96.9235 372.818Z" fill="#D9D9D9"/>
<path d="M108.255 468.664L120.455 468.798C119.96 470.733 119.49 473.358 119.495 476.478C119.499 479.54 119.965 482.122 120.455 484.037C119.033 488.524 117.703 492.278 116.612 495.196C116.026 496.76 115.522 498.061 114.211 499.035C113.14 499.832 112.054 500.019 107.006 499.995C102.567 499.976 100.295 499.957 97.8791 499.515C94.3486 498.872 92.5857 498.55 92.115 497.595C91.3224 495.988 93.3015 492.282 105.084 483.197C106.021 481.685 107.289 479.242 107.966 475.998C108.6 472.96 108.471 470.377 108.255 468.664Z" fill="#D9D9D9"/>
<path d="M156.385 378.089C163.15 378.089 168.634 370.998 168.634 362.25C168.634 353.503 163.15 346.412 156.385 346.412C149.62 346.412 144.136 353.503 144.136 362.25C144.136 370.998 149.62 378.089 156.385 378.089Z" fill="#FD6C01"/>
<path d="M168.634 372.814C168.408 373.246 164.767 379.931 157.586 380.483C151.38 380.963 145.241 376.653 143.175 369.924C142.181 374.863 140.841 382.729 140.293 392.482C139.582 405.09 140.639 413.033 142.695 436.637C143.276 443.289 144.141 453.579 145.097 466.394H157.298C160.987 450.987 164.555 438.581 167.193 429.918C172.097 413.82 175.195 406.05 174.398 394.402C173.764 385.177 170.973 377.747 168.634 372.814Z" fill="#D9D9D9"/>
<path d="M157.298 468.659L145.097 468.794C145.592 470.728 146.063 473.353 146.058 476.473C146.053 479.535 145.587 482.117 145.097 484.032C146.519 488.519 147.85 492.273 148.94 495.191C149.526 496.755 150.03 498.056 151.342 499.03C152.413 499.827 153.498 500.014 158.547 499.99C162.985 499.971 165.257 499.952 167.673 499.51C171.204 498.867 172.967 498.546 173.437 497.59C174.23 495.983 172.251 492.277 160.468 483.192C159.531 481.68 158.263 479.237 157.586 475.993C156.952 472.955 157.082 470.373 157.298 468.659Z" fill="#D9D9D9"/>
<path d="M168.835 213.015C167.75 221.51 164.647 236.504 154.425 251.891C147.647 262.09 140 269.059 134.251 273.489C133.338 283.827 133.031 296.157 134.251 309.965C135.778 327.257 139.265 342.016 142.897 353.64C145.342 347.362 151.625 343.633 157.787 344.521C162.855 345.25 167.154 348.999 168.835 354.12C172.789 344.713 178.288 330.646 183.726 312.844C185.546 306.874 186.449 303.888 187.333 300.135C189.894 289.245 194.428 269.711 188.529 248.051C186.507 240.631 181.627 226.972 168.835 213.015Z" fill="#D9D9D9"/>
</g>
<defs>
<clipPath id="clip0_1199_2">
<rect width="265" height="500" fill="white"/>
</clipPath>
</defs>
</svg>
