<svg width="30" height="32" viewBox="0 0 30 32" fill="none" xmlns="http://www.w3.org/2000/svg">
<path d="M4.91184 11.7505H0.0755667C0.176322 11.3725 0.308816 11.0145 0.473048 10.6765C0.637279 10.3384 0.832241 10.008 1.05793 9.68505L6.87657 1.34226C7.30478 0.721271 7.87808 0.309261 8.59647 0.106226C9.31486 -0.0968089 10.001 -0.00879121 10.6549 0.370279L11.7128 0.937266C12.2418 1.23426 12.6514 1.63925 12.9416 2.15224C13.2317 2.66522 13.3763 3.23221 13.3753 3.85319V7.25511L16.1713 6.48563C16.9269 6.26963 17.6574 6.37115 18.3627 6.79018C19.068 7.20921 19.5466 7.80968 19.7985 8.59158L22.2544 16.5294L28.6776 23.4142C29.1814 23.9542 29.528 24.5347 29.7174 25.1557C29.9068 25.7767 30.001 26.4381 30 27.1401C30 28.1391 29.7481 29.0301 29.2443 29.8131C28.7405 30.596 28.0856 31.1765 27.2796 31.5545L10.1259 13.9779C9.39546 13.249 8.58942 12.6955 7.70781 12.3175C6.82619 11.9395 5.8942 11.7505 4.91184 11.7505ZM18.136 32C17.3803 32 16.6625 31.8515 15.9824 31.5545C15.3023 31.2575 14.6725 30.839 14.0932 30.299L1.8136 18.3518C1.33501 17.8928 0.944584 17.3734 0.642317 16.7934C0.34005 16.2135 0.125945 15.6125 0 14.9904H4.91184C5.49118 14.9904 6.05189 15.0984 6.59395 15.3144C7.13602 15.5304 7.62065 15.8679 8.04786 16.3269L23.3123 32H18.136Z" fill="#FD6C01"/>
</svg>
