<svg width="30" height="39" viewBox="0 0 30 39" fill="none" xmlns="http://www.w3.org/2000/svg">
<path fill-rule="evenodd" clip-rule="evenodd" d="M14.9986 36.9222L14.1774 38.0098H14.1718L14.1607 37.9987L14.1274 37.9709C13.9295 37.8213 13.7352 37.6668 13.5448 37.5076C11.2034 35.5535 9.05282 33.3816 7.12198 31.021C3.64006 26.74 0 20.6362 0 13.7168C0 9.1251 1.91991 5.64317 4.8081 3.34594C7.66022 1.07368 11.3835 -3.05176e-05 14.9986 -3.05176e-05C18.6165 -3.05176e-05 22.3398 1.07368 25.1919 3.34594C28.0773 5.64595 30 9.1251 30 13.7168C30 20.6362 26.3599 26.74 22.878 31.021C20.9473 33.3825 18.7967 35.5554 16.4552 37.5104C16.2631 37.6684 16.0689 37.8238 15.8726 37.9765L15.8393 38.0042L15.8282 38.0098H15.8226C15.5855 38.1883 15.2968 38.2848 15 38.2848C14.7032 38.2848 14.4145 38.1883 14.1774 38.0098L14.28 37.8738L14.9986 36.9222ZM12.1853 23.4467C12.1853 24.0405 12.6653 24.5205 13.259 24.5205H16.7437C17.3375 24.5205 17.8174 24.0405 17.8174 23.4467V19.1824H22.0818C22.6755 19.1824 23.1555 18.6997 23.1555 18.1087V14.6213C23.1547 14.337 23.0413 14.0646 22.84 13.8638C22.6387 13.6631 22.366 13.5503 22.0818 13.5503H17.8174V9.28324C17.8174 8.99847 17.7043 8.72537 17.503 8.52401C17.3016 8.32265 17.0285 8.20953 16.7437 8.20953H13.2563C12.972 8.21027 12.6996 8.32371 12.4988 8.52499C12.2981 8.72627 12.1853 8.99895 12.1853 9.28324V13.5503H7.91825C7.63444 13.5511 7.36247 13.6641 7.16179 13.8648C6.96111 14.0655 6.84805 14.3375 6.84731 14.6213V18.1087C6.84731 18.6997 7.32729 19.1824 7.91825 19.1824H12.1853V23.4467Z" fill="#FD6C01"/>
</svg>
