<svg width="30" height="39" viewBox="0 0 30 39" fill="none" xmlns="http://www.w3.org/2000/svg">
<path fill-rule="evenodd" clip-rule="evenodd" d="M14.9986 36.9226L14.1774 38.0101H14.1718L14.1607 37.999L14.1274 37.9713C13.9295 37.8216 13.7352 37.6672 13.5448 37.508C11.2034 35.5539 9.05282 33.3819 7.12198 31.0213C3.64006 26.7404 0 20.6366 0 13.7172C0 9.12546 1.91991 5.64354 4.8081 3.34631C7.66022 1.07404 11.3835 0.000335693 14.9986 0.000335693C18.6165 0.000335693 22.3398 1.07404 25.1919 3.34631C28.0773 5.64632 30 9.12546 30 13.7172C30 20.6366 26.3599 26.7404 22.878 31.0213C20.9473 33.3829 18.7967 35.5558 16.4552 37.5107C16.2631 37.6688 16.0689 37.8242 15.8726 37.9768L15.8393 38.0046L15.8282 38.0101H15.8226C15.5855 38.1886 15.2968 38.2852 15 38.2852C14.7032 38.2852 14.4145 38.1886 14.1774 38.0101L14.28 37.8742L14.9986 36.9226ZM12.1853 23.4471C12.1853 24.0408 12.6653 24.5208 13.259 24.5208H16.7437C17.3375 24.5208 17.8174 24.0408 17.8174 23.4471V19.1828H22.0818C22.6755 19.1828 23.1555 18.7 23.1555 18.1091V14.6216C23.1547 14.3373 23.0413 14.065 22.84 13.8642C22.6387 13.6634 22.366 13.5507 22.0818 13.5507H17.8174V9.28361C17.8174 8.99884 17.7043 8.72574 17.503 8.52438C17.3016 8.32302 17.0285 8.2099 16.7437 8.2099H13.2563C12.972 8.21063 12.6996 8.32408 12.4988 8.52536C12.2981 8.72664 12.1853 8.99932 12.1853 9.28361V13.5507H7.91825C7.63444 13.5514 7.36247 13.6645 7.16179 13.8652C6.96111 14.0658 6.84805 14.3378 6.84731 14.6216V18.1091C6.84731 18.7 7.32729 19.1828 7.91825 19.1828H12.1853V23.4471Z" fill="#FD6C01"/>
</svg>
