<svg width="11" height="11" viewBox="0 0 11 11" fill="none" xmlns="http://www.w3.org/2000/svg">
    <path d="M9.95423 0.502953L10.0064 0.5L10.0704 0.503937L10.1147 0.511811L10.1752 0.529035L10.2279 0.551673L10.2771 0.579724L10.3214 0.612697L10.3617 0.649606L10.3873 0.678642L10.4277 0.735728L10.4532 0.782972C10.4762 0.832185 10.491 0.884022 10.4975 0.938484L10.5 0.99065C10.5 1.02772 10.4961 1.06381 10.4882 1.09892L10.471 1.15945L7.2564 10.0556C7.19546 10.1883 7.09773 10.3007 6.97482 10.3794C6.85191 10.4582 6.70898 10.5 6.56299 10.5C6.43154 10.5003 6.30225 10.4666 6.18765 10.4022C6.07306 10.3377 5.97706 10.2448 5.90896 10.1324L5.87697 10.0699L4.22736 6.77165L0.944882 5.12992C0.823426 5.07437 0.718683 4.98791 0.641128 4.87918C0.563574 4.77045 0.515927 4.64326 0.502953 4.51033L0.5 4.43701C0.5 4.16142 0.64813 3.90945 0.913878 3.76279L0.982776 3.72835L9.84941 0.526575L9.90158 0.511811L9.95423 0.502953Z" fill="#FD6C01"/>
</svg>
