<svg width="363" height="534" viewBox="0 0 363 534" fill="none" xmlns="http://www.w3.org/2000/svg">
    <path d="M20 240.445C20 272.704 20 304.986 20 337.245C20 391.51 32.0894 435.175 67.2964 470.344C110.509 513.525 169.595 514.379 186.114 513.94C202.749 513.502 253.852 511.216 295.704 470.344C342.908 424.253 342.4 364.169 342.123 353.778C342.423 287.852 342.7 221.926 343 156" stroke="white" stroke-opacity="0.3" stroke-width="40" stroke-miterlimit="10" stroke-linecap="round"/>
    <path d="M271 70C270.515 163.581 270.052 257.162 269.567 350.744C269.567 397.281 230.245 434.99 181.723 434.99C176.059 435.082 144.851 435.082 119.608 410.304C95.2655 386.424 94.0171 356.713 93.8784 350.721C93.5779 275.579 93.3005 200.437 93 125.296" stroke="white" stroke-opacity="0.3" stroke-width="40" stroke-miterlimit="10" stroke-linecap="round"/>
    <path d="M182 20V271" stroke="white" stroke-opacity="0.3" stroke-width="40" stroke-miterlimit="10" stroke-linecap="round"/>
</svg>
