<svg width="24" height="26" viewBox="0 0 24 26" fill="none" xmlns="http://www.w3.org/2000/svg">
<path d="M12 1C12.574 1 13.0699 1.16025 13.5059 1.47656L13.5098 1.47852L22.5098 7.90723L22.5137 7.91016C22.823 8.12625 23.0635 8.39854 23.2393 8.73242C23.4147 9.06576 23.5008 9.4144 23.5 9.78418V22.6426C23.5 23.2864 23.2661 23.8306 22.7734 24.2998C22.2802 24.7695 21.6983 25.0007 21.001 25H16.5C16.1938 25 15.9643 24.9061 15.7773 24.7275C15.614 24.5715 15.5252 24.3922 15.5049 24.1689L15.5 24.0703V16.9287C15.5 16.3898 15.3017 15.9186 14.9121 15.5488C14.5248 15.1813 14.0432 15.0012 13.501 15H10.5C9.95642 15 9.47388 15.1801 9.08691 15.5498C8.69962 15.9199 8.50133 16.3905 8.5 16.9277V24.0713C8.5 24.3417 8.41028 24.5496 8.22363 24.7275C8.03545 24.9068 7.80557 25.0007 7.50098 25H3C2.30089 25 1.71875 24.7685 1.22656 24.2998C0.735191 23.8318 0.500907 23.2879 0.5 22.6426V9.78613C0.5 9.41582 0.586066 9.06621 0.761719 8.73242C0.93767 8.39815 1.1778 8.12527 1.48633 7.90918H1.4873L1.49023 7.90723L10.4902 1.47852L10.6602 1.36523C11.0551 1.12269 11.4976 1 12 1Z" fill="#D9D9D9" stroke="#D9D9D9"/>
</svg>
