<svg width="29" height="26" viewBox="0 0 29 26" fill="none" xmlns="http://www.w3.org/2000/svg">
<path d="M4.97852 1.3916C7.55069 0.426557 10.9755 1.17943 14.1426 4.42285L14.5 4.78906L14.8574 4.42285C18.0245 1.17943 21.4493 0.426557 24.0215 1.3916C26.5885 2.35478 28.5 5.10201 28.5 9.27539C28.4999 11.689 27.1331 14.2395 25.165 16.6436C23.2082 19.0339 20.7174 21.2064 18.5986 22.8535C16.6294 24.3829 15.8041 25 14.5 25C13.1959 25 12.3702 24.3841 10.4014 22.8535C8.28187 21.2064 5.7907 19.0339 3.83398 16.6436C1.86623 14.2396 0.500112 11.6889 0.5 9.27539C0.5 5.10201 2.41153 2.35478 4.97852 1.3916ZM21.0254 4.7793C20.6021 4.7793 20.1975 4.95058 19.9004 5.25195C19.6035 5.55308 19.4375 5.95995 19.4375 6.38281V7.7207H18.125C17.7017 7.7207 17.2971 7.89111 17 8.19238C16.7032 8.49342 16.5372 8.90051 16.5371 9.32324C16.5371 9.746 16.7032 10.153 17 10.4541C17.2972 10.7555 17.7017 10.9268 18.125 10.9268H19.4375V12.2646C19.4375 12.6875 19.6035 13.0944 19.9004 13.3955C20.1975 13.6968 20.6021 13.8682 21.0254 13.8682C21.4486 13.8681 21.8533 13.6968 22.1504 13.3955C22.4471 13.0944 22.6123 12.6874 22.6123 12.2646V10.9268H23.9248C24.3481 10.9268 24.7527 10.7555 25.0498 10.4541C25.3466 10.153 25.5127 9.74605 25.5127 9.32324C25.5126 8.90051 25.3466 8.49343 25.0498 8.19238C24.7527 7.89117 24.348 7.7207 23.9248 7.7207H22.6123V6.38281C22.6123 5.96014 22.4471 5.55305 22.1504 5.25195C21.8533 4.95067 21.4486 4.7794 21.0254 4.7793Z" fill="#D9D9D9" stroke="#D9D9D9"/>
</svg>
