<svg width="24" height="26" viewBox="0 0 24 26" fill="none" xmlns="http://www.w3.org/2000/svg">
<path d="M12 15.0625C13.6084 15.0615 15.1923 15.2583 16.752 15.6533C18.3102 16.048 19.8477 16.6371 21.3633 17.4238V17.4248C22.0039 17.7701 22.5202 18.2706 22.9141 18.9385C23.3052 19.6019 23.5008 20.327 23.5 21.124V25H0.5V21.125C0.5 20.3264 0.696686 19.6009 1.08789 18.9385C1.48051 18.2738 1.99381 17.774 2.63086 17.4277C4.14835 16.6374 5.68699 16.0464 7.24707 15.6533C8.80713 15.2603 10.3912 15.0635 12 15.0625ZM12 1C13.5096 1 14.7932 1.55374 15.877 2.68262C16.9611 3.81206 17.5 5.15859 17.5 6.75C17.5 8.34141 16.9611 9.68794 15.877 10.8174C14.7932 11.9463 13.5096 12.5 12 12.5C10.4904 12.5 9.20676 11.9463 8.12305 10.8174C7.03891 9.68794 6.5 8.34141 6.5 6.75C6.5 5.15859 7.03891 3.81206 8.12305 2.68262C9.20676 1.55374 10.4904 1 12 1Z" fill="#D9D9D9" stroke="#D9D9D9"/>
</svg>
