<svg width="34" height="34" viewBox="0 0 34 34" fill="none" xmlns="http://www.w3.org/2000/svg">
<path fill-rule="evenodd" clip-rule="evenodd" d="M23.2166 0.129601C23.6935 0.0562133 24.3106 0 25.082 0C25.8533 0 26.4704 0.0562133 26.9473 0.129601C28.0508 0.299393 28.6701 1.2545 28.7036 2.21801C28.7271 2.89446 28.7542 3.8866 28.7734 5.22667C30.1134 5.24577 31.1056 5.27293 31.782 5.29641C32.7455 5.32986 33.7006 5.94921 33.8704 7.05268C33.9438 7.52957 34 8.1467 34 8.91803C34 9.68937 33.9438 10.3065 33.8704 10.7834C33.7006 11.8868 32.7455 12.5062 31.782 12.5396C31.1056 12.5631 30.1134 12.5903 28.7734 12.6094C28.7542 13.9494 28.7271 14.9416 28.7036 15.6181C28.6701 16.5816 28.0508 17.5366 26.9473 17.7065C26.4704 17.7799 25.8533 17.8361 25.082 17.8361C24.3106 17.8361 23.6935 17.7799 23.2166 17.7065C22.1132 17.5366 21.4938 16.5816 21.4604 15.6181C21.4369 14.9416 21.4097 13.9494 21.3906 12.6094C20.0506 12.5903 19.0584 12.5631 18.3819 12.5396C17.4184 12.5062 16.4634 11.8868 16.2935 10.7834C16.2201 10.3065 16.1639 9.68937 16.1639 8.91803C16.1639 8.1467 16.2201 7.52957 16.2935 7.05268C16.4634 5.94922 17.4184 5.32986 18.3819 5.29641C19.0584 5.27293 20.0506 5.24577 21.3906 5.22667C21.4097 3.8866 21.4369 2.89446 21.4604 2.21801C21.4938 1.2545 22.1132 0.299393 23.2166 0.129601ZM9.656 16.1639C7.58285 16.1639 5.37673 16.6888 3.74927 17.1801C2.92262 17.4296 2.21801 17.6789 1.71833 17.8665C1.46809 17.9605 1.2682 18.0393 1.12894 18.0955C1.05928 18.1236 1.0047 18.1461 0.966484 18.162L0.921574 18.1808L0.908598 18.1863L0.902111 18.1891C0.147704 18.5117 -0.20251 19.3851 0.119888 20.1399C0.44223 20.8947 1.31528 21.2449 2.0696 20.9226L2.07593 20.9199L2.10713 20.9068C2.13602 20.8949 2.18081 20.8764 2.24025 20.8524C2.3592 20.8044 2.53649 20.7344 2.76207 20.6497C3.21401 20.48 3.85561 20.2529 4.60729 20.026C6.13646 19.5645 8.01538 19.1366 9.656 19.1366C11.9476 19.1366 14.5851 20.0785 16.4681 20.9277C17.2516 21.281 17.6165 21.4677 17.8587 21.6807C18.0196 21.8221 18.1787 22.0206 18.293 22.5563C18.3016 22.5969 18.3125 22.7174 18.2781 22.9103C18.245 23.0956 18.1796 23.2927 18.0909 23.4674C18.0026 23.6413 17.9137 23.7494 17.8563 23.8019L17.2187 23.8532C16.4306 23.8476 15.392 23.7293 14.4978 23.5998C14.0498 23.5348 13.656 23.4699 13.3746 23.4212C13.2341 23.3969 13.1221 23.3768 13.0461 23.3628C13.0081 23.3559 12.9792 23.3505 12.9601 23.3469L12.9392 23.343L12.9337 23.3419C12.1279 23.1876 11.3498 23.716 11.1955 24.5221C11.0412 25.3284 11.5694 26.1072 12.3752 26.2616L12.3859 26.2636C12.4705 26.2791 12.7173 26.3242 12.8684 26.3504C13.1701 26.4026 13.5915 26.4721 14.0722 26.5418C15.0134 26.6781 16.2567 26.8261 17.2759 26.8261C18.6689 26.8261 21.0689 26.5061 23.3108 26.1557C25.5953 25.7988 27.854 25.3871 29.0336 25.1665C29.6012 25.0603 29.8038 25.0762 29.9086 25.1158C30.0786 25.18 30.2766 25.2888 30.4624 25.4782C30.6438 25.6631 30.8553 25.9666 31.0052 26.4817C31.0382 26.5951 31.0306 26.7247 30.9253 26.892C30.8095 27.0759 30.5919 27.2653 30.3055 27.3762C28.68 28.0056 26.1855 28.9291 23.6832 29.693C21.1258 30.4738 18.748 31.0273 17.2759 31.0273C12.8443 31.0273 8.99815 30.4705 6.26239 29.9138C4.89584 29.6357 3.8101 29.3585 3.0713 29.1525C2.70201 29.0495 2.41973 28.9645 2.23274 28.9062C2.13926 28.877 2.06963 28.8546 2.02488 28.84L1.97658 28.824L1.9664 28.8206L1.96539 28.8203C1.18938 28.5554 0.345544 28.9698 0.0802544 29.7462C-0.185143 30.5229 0.229669 31.3681 1.00595 31.6336L1.00883 31.6346L1.0148 31.6366L1.03405 31.6431C1.05011 31.6485 1.0726 31.656 1.10141 31.6654C1.15904 31.6842 1.24191 31.7109 1.34899 31.7443C1.56314 31.8111 1.87423 31.9046 2.2739 32.0161C3.07302 32.2388 4.22752 32.5333 5.67031 32.8268C8.55321 33.4135 12.6021 34 17.2759 34C19.241 34 22.0047 33.3135 24.5502 32.5363C27.1507 31.7424 29.7204 30.7903 31.3777 30.1485C32.944 29.542 34.4818 27.7951 33.8576 25.6506C33.2796 23.6645 32.0022 22.7291 30.9579 22.3347C29.9971 21.9718 29.0398 22.1412 28.4878 22.2444C27.3206 22.4627 25.0947 22.8682 22.8523 23.2187C22.2888 23.3068 21.7323 23.39 21.1968 23.4654C21.2909 22.9601 21.3046 22.4333 21.1985 21.9358C20.9743 20.8851 20.5388 20.0801 19.8201 19.4479C19.1912 18.8949 18.4045 18.5401 17.7166 18.23L17.6888 18.2175C15.7198 17.3295 12.6042 16.1639 9.656 16.1639Z" fill="#D9D9D9"/>
</svg>
