<svg width="27" height="28" viewBox="0 0 27 28" fill="none" xmlns="http://www.w3.org/2000/svg">
<path d="M1 21.5C1 19.575 1 18.6125 1.43375 17.905C1.67625 17.5087 2.00875 17.1763 2.405 16.9338C3.11125 16.5 4.075 16.5 6 16.5C7.925 16.5 8.8875 16.5 9.595 16.9338C9.99125 17.1763 10.3237 17.5087 10.5662 17.905C11 18.6112 11 19.575 11 21.5C11 23.425 11 24.3875 10.5662 25.0963C10.3237 25.4913 9.99125 25.8237 9.595 26.0662C8.88875 26.5 7.925 26.5 6 26.5C4.075 26.5 3.1125 26.5 2.405 26.0662C2.00919 25.8242 1.67635 25.4918 1.43375 25.0963C1 24.3875 1 23.425 1 21.5ZM16 21.5C16 19.575 16 18.6125 16.4338 17.905C16.6763 17.5087 17.0087 17.1763 17.405 16.9338C18.1112 16.5 19.075 16.5 21 16.5C22.925 16.5 23.8875 16.5 24.5963 16.9338C24.9913 17.1763 25.3237 17.5087 25.5662 17.905C26 18.6112 26 19.575 26 21.5C26 23.425 26 24.3875 25.5662 25.0963C25.3236 25.4913 24.9913 25.8236 24.5963 26.0662C23.8875 26.5 22.925 26.5 21 26.5C19.075 26.5 18.1125 26.5 17.405 26.0662C17.0092 25.8242 16.6764 25.4918 16.4338 25.0963C16 24.3875 16 23.425 16 21.5ZM1 6.5C1 4.575 1 3.6125 1.43375 2.905C1.67625 2.50875 2.00875 2.17625 2.405 1.93375C3.11125 1.5 4.075 1.5 6 1.5C7.925 1.5 8.8875 1.5 9.595 1.93375C9.99125 2.17625 10.3237 2.50875 10.5662 2.905C11 3.61125 11 4.575 11 6.5C11 8.425 11 9.3875 10.5662 10.095C10.3237 10.4913 9.99125 10.8237 9.595 11.0662C8.88875 11.5 7.925 11.5 6 11.5C4.075 11.5 3.1125 11.5 2.405 11.0662C2.00904 10.8238 1.6762 10.491 1.43375 10.095C1 9.38875 1 8.425 1 6.5ZM16 6.5C16 4.575 16 3.6125 16.4338 2.905C16.6763 2.50875 17.0087 2.17625 17.405 1.93375C18.1112 1.5 19.075 1.5 21 1.5C22.925 1.5 23.8875 1.5 24.5963 1.93375C24.9913 2.17625 25.3237 2.50875 25.5662 2.905C26 3.61125 26 4.575 26 6.5C26 8.425 26 9.3875 25.5662 10.095C25.3237 10.4913 24.9913 10.8237 24.5963 11.0662C23.8875 11.5 22.925 11.5 21 11.5C19.075 11.5 18.1125 11.5 17.405 11.0662C17.009 10.8238 16.6762 10.491 16.4338 10.095C16 9.38875 16 8.425 16 6.5Z" fill="#D9D9D9" stroke="#D9D9D9" stroke-width="1.5" stroke-linecap="round" stroke-linejoin="round"/>
</svg>
