<svg width="32" height="33" viewBox="0 0 32 33" fill="none" xmlns="http://www.w3.org/2000/svg">
<path d="M1.74753 7.06481C2.24573 5.96031 2.94858 4.92563 3.85612 4.0181C7.88026 -0.00603474 14.4047 -0.00603474 18.4289 4.0181L28.1439 13.7332C29.6899 15.2791 30.6419 17.1941 31 19.1944M1 13.1296C1.35817 15.1299 2.3102 17.0449 3.85612 18.5908L13.5712 28.3059C17.5954 32.3301 24.1198 32.3301 28.1439 28.3059C29.0515 27.3985 29.7543 26.3638 30.2525 25.2592" stroke="white" stroke-width="2" stroke-linecap="round"/>
<path d="M23.2852 8.87549C23.2852 8.87549 22.4652 13.1294 17.7154 17.8792C12.9656 22.6289 8.7124 23.4483 8.7124 23.4483" stroke="white" stroke-width="2"/>
</svg>
