<svg width="112" height="50" viewBox="0 0 112 50" fill="none" xmlns="http://www.w3.org/2000/svg">
    <rect width="112" height="39" rx="5" fill="#FD6C01"/>
    <path d="M54.2054 46.875C54.9752 48.2083 56.8997 48.2083 57.6695 46.875L61.9455 39.4688C62.7153 38.1354 61.7531 36.4688 60.2135 36.4688H51.6615C50.1219 36.4688 49.1596 38.1354 49.9294 39.4688L54.2054 46.875Z" fill="#FD6C01"/>
    <path d="M29.9658 14.6533V26.1299H28.5439V14.6533H29.9658ZM26.5381 15.8721C26.5381 19.2871 25.2178 22.1943 21.1934 24.0986L20.457 22.9688C23.4595 21.5405 24.856 19.5981 25.1035 16.9893H21.041V15.8721H26.5381ZM42.0898 20.8613V22.0039H31.6035V20.8613H36.1484V19.9092H32.9365V16.8623H39.3857V16.0117H32.8984V14.9072H40.7949V17.8906H34.333V18.8047H41.0234V19.9092H37.5449V20.8613H42.0898ZM40.8584 22.7275V26.0537H39.4365V23.8447H32.7715V22.7275H40.8584ZM48.4502 16.4814V17.6113H42.8262V16.4814H44.959V14.9834H46.3555V16.4814H48.4502ZM45.6572 18.2207C47.1172 18.2207 48.1582 19.3252 48.1582 20.8867C48.1582 22.4736 47.1172 23.5908 45.6572 23.5908C44.21 23.5908 43.1436 22.4736 43.1562 20.8867C43.1436 19.3252 44.21 18.2207 45.6572 18.2207ZM45.6572 19.3887C44.9082 19.3887 44.3877 19.9854 44.4004 20.8867C44.3877 21.8135 44.9082 22.3975 45.6572 22.3848C46.3936 22.3975 46.9141 21.8135 46.9141 20.8867C46.9141 19.9854 46.3936 19.3887 45.6572 19.3887ZM52.7158 14.6533V26.1299H51.3701V20.5186H50.2529V25.6094H48.9326V14.8945H50.2529V19.376H51.3701V14.6533H52.7158ZM64.5479 21.0518V22.1943H59.9902V26.1172H58.5938V22.1943H54.0869V21.0518H64.5479ZM63.583 15.3008V16.418H60.1426C60.2251 17.6748 61.7358 18.8809 64.002 19.1729L63.4941 20.2773C61.5391 20.0044 60.0156 19.1094 59.3174 17.8652C58.6191 19.1094 57.0957 20.0044 55.166 20.2773L54.6328 19.1729C56.8862 18.8809 58.397 17.6748 58.5049 16.418H55.0518V15.3008H63.583ZM68.9023 17.6621C68.9023 19.5156 69.5498 21.4453 71.0986 22.4229L70.3242 23.502C69.2896 22.8799 68.6167 21.8071 68.2422 20.5439C67.8232 21.9341 67.0869 23.1084 66.0078 23.7686L65.1318 22.7148C66.7949 21.6992 67.5439 19.6807 67.5439 17.7256V15.6689H68.9023V17.6621ZM75.2246 14.6533V26.1299H73.8662V14.6533H75.2246ZM72.8379 14.8564V25.5713H71.5049V19.7695H69.8672V18.6016H71.5049V14.8564H72.8379ZM87.0439 23.5781V24.7334H76.5576V23.5781H78.9824V20.6709C78.0684 20.1504 77.5161 19.3315 77.5225 18.3096C77.5098 16.4814 79.3125 15.2754 81.7754 15.2754C84.251 15.2754 86.0537 16.4814 86.0537 18.3096C86.0537 19.3125 85.5205 20.1187 84.6318 20.6455V23.5781H87.0439ZM81.7754 16.3926C80.0615 16.3926 78.8936 17.1162 78.9062 18.3096C78.8936 19.4902 80.0615 20.2266 81.7754 20.2266C83.4893 20.2266 84.6699 19.4902 84.6699 18.3096C84.6699 17.1162 83.4893 16.3926 81.7754 16.3926ZM80.3789 23.5781H83.1973V21.1787C82.7593 21.2803 82.2832 21.3311 81.7754 21.3311C81.2803 21.3311 80.8105 21.2803 80.3789 21.1914V23.5781ZM90.1543 15.8086L90.0146 22.2959H88.5801L88.4277 15.8086H90.1543ZM89.3037 25.1016C88.7578 25.1016 88.3135 24.6572 88.3135 24.1113C88.3135 23.5781 88.7578 23.1338 89.3037 23.1338C89.8242 23.1338 90.2812 23.5781 90.2812 24.1113C90.2812 24.6572 89.8242 25.1016 89.3037 25.1016Z" fill="white"/>
</svg>
