<svg width="48" height="48" viewBox="0 0 48 48" fill="none" xmlns="http://www.w3.org/2000/svg">
    <path d="M33 15H36V18.438C35.9996 19.0375 35.8197 19.6231 35.4833 20.1193C35.147 20.6155 34.6697 20.9996 34.113 21.222L33 21.669V15ZM15 21.669L13.887 21.222C13.3303 20.9996 12.853 20.6155 12.5167 20.1193C12.1803 19.6231 12.0004 19.0375 12 18.438V15H15V21.669Z" fill="white"/>
    <path d="M24 48C17.6348 48 11.5303 45.4714 7.02944 40.9706C2.52856 36.4697 0 30.3652 0 24C0 17.6348 2.52856 11.5303 7.02944 7.02944C11.5303 2.52856 17.6348 0 24 0C30.3652 0 36.4697 2.52856 40.9706 7.02944C45.4714 11.5303 48 17.6348 48 24C48 30.3652 45.4714 36.4697 40.9706 40.9706C36.4697 45.4714 30.3652 48 24 48ZM9 15V18.438C8.99932 19.6376 9.35825 20.8099 10.0304 21.8035C10.7026 22.7971 11.6572 23.5663 12.771 24.012L15.366 25.05C15.8311 26.6249 16.7183 28.0424 17.9314 29.1492C19.1444 30.256 20.6372 31.0098 22.248 31.329C21.66 34.212 19.974 36 16.506 36H16.5C16.1022 36 15.7206 36.158 15.4393 36.4393C15.158 36.7206 15 37.1022 15 37.5C15 37.8978 15.158 38.2794 15.4393 38.5607C15.7206 38.842 16.1022 39 16.5 39H31.5C31.8978 39 32.2794 38.842 32.5607 38.5607C32.842 38.2794 33 37.8978 33 37.5C33 37.1022 32.842 36.7206 32.5607 36.4393C32.2794 36.158 31.8978 36 31.5 36C28.026 36 26.34 34.215 25.752 31.329C27.3631 31.0096 28.8562 30.2553 30.0693 29.148C31.2824 28.0406 32.1693 26.6224 32.634 25.047L35.229 24.009C36.3423 23.5635 37.2966 22.7947 37.9687 21.8017C38.6409 20.8087 39.0001 19.6371 39 18.438V15C39 14.2044 38.6839 13.4413 38.1213 12.8787C37.5587 12.3161 36.7957 12 36 12H12C11.2044 12 10.4413 12.3161 9.87868 12.8787C9.31607 13.4413 9 14.2044 9 15Z" fill="white"/>
</svg>
