<svg width="31" height="151" viewBox="0 0 31 151" fill="none" xmlns="http://www.w3.org/2000/svg">
    <path d="M0 1L20.0588 1" stroke="#F7F7F7" stroke-width="2"/>
    <path d="M0 10.52L20.0588 10.52" stroke="#F7F7F7" stroke-width="2"/>
    <path d="M0 20.04L20.0588 20.04" stroke="#F7F7F7" stroke-width="2"/>
    <path d="M0 29.5601L20.0588 29.5601" stroke="#F7F7F7" stroke-width="2"/>
    <path d="M0 37.7202L31 37.7202" stroke="#F7F7F7" stroke-width="2"/>
    <path d="M0 47.2402L20.0588 47.2402" stroke="#F7F7F7" stroke-width="2"/>
    <path d="M0 56.7598L20.0588 56.7598" stroke="#F7F7F7" stroke-width="2"/>
    <path d="M0 66.2798H20.0588" stroke="#F7F7F7" stroke-width="2"/>
    <path d="M0 75.7998H20.0588" stroke="#F7F7F7" stroke-width="2"/>
    <path d="M0 83.96L20.0588 83.96" stroke="#F7F7F7" stroke-width="2"/>
    <path d="M0 93.48H20.0588" stroke="#F7F7F7" stroke-width="2"/>
    <path d="M0 103H20.0588" stroke="#F7F7F7" stroke-width="2"/>
    <path d="M0 112.52H20.0588" stroke="#F7F7F7" stroke-width="2"/>
    <path d="M0 122.04H20.0588" stroke="#F7F7F7" stroke-width="2"/>
    <path d="M0 130.2H31" stroke="#F7F7F7" stroke-width="2"/>
    <path d="M0 139.72H20.0588" stroke="#F7F7F7" stroke-width="2"/>
    <path d="M0 149.24H20.0588" stroke="#F7F7F7" stroke-width="2"/>
</svg>
