<svg width="124" height="124" viewBox="0 0 124 124" fill="none" xmlns="http://www.w3.org/2000/svg">
    <rect width="124" height="124" rx="23.5174" fill="url(#paint0_linear_1108_423)"/>
    <path d="M36.5111 57.4136C36.5111 62.5037 36.5111 67.5975 36.5111 72.6876C36.5111 81.2501 38.4191 88.1401 43.9757 93.6893C50.7958 100.503 60.1211 100.638 62.7283 100.568C65.3536 100.499 73.419 100.139 80.0243 93.6893C87.4743 86.4167 87.3942 76.9361 87.3505 75.2964C87.3979 64.894 87.4416 54.4915 87.4889 44.089M75.7778 30.3112C75.7026 45.1475 75.6311 59.9837 75.5559 74.82C75.5559 82.1979 69.4686 88.1763 61.9571 88.1763C61.0803 88.1909 56.2491 88.1909 52.3412 84.2626C48.5729 80.4768 48.3797 75.7664 48.3582 74.8163C48.3117 62.9035 48.2688 50.9906 48.2222 39.0778M62 22.7334V62.0001" stroke="white" stroke-width="8.26667" stroke-miterlimit="10" stroke-linecap="round"/>
    <defs>
        <linearGradient id="paint0_linear_1108_423" x1="61.9594" y1="161.682" x2="61.9594" y2="67.8387" gradientUnits="userSpaceOnUse">
            <stop stop-color="white"/>
            <stop offset="1" stop-color="#FD6C01"/>
        </linearGradient>
    </defs>
</svg>
