<svg width="17" height="18" viewBox="0 0 17 18" fill="none" xmlns="http://www.w3.org/2000/svg">
<path d="M2.78337 6.40652H0.0428211C0.099916 6.20571 0.174996 6.01551 0.26806 5.83594C0.361125 5.65636 0.471603 5.48079 0.599496 5.30925L3.89672 0.877136C4.13938 0.547238 4.46425 0.328358 4.87133 0.220495C5.27842 0.112633 5.66724 0.159392 6.03778 0.360773L6.63728 0.661985C6.93703 0.819762 7.16912 1.03491 7.33355 1.30744C7.49798 1.57996 7.57991 1.88117 7.57934 2.21107V4.01834L9.16373 3.60955C9.59194 3.49481 10.0059 3.54874 10.4055 3.77135C10.8052 3.99396 11.0764 4.31295 11.2191 4.72834L12.6108 8.9453L16.2506 12.6029C16.5361 12.8897 16.7325 13.1981 16.8398 13.528C16.9472 13.8579 17.0006 14.2093 17 14.5823C17 15.113 16.8573 15.5863 16.5718 16.0022C16.2863 16.4182 15.9152 16.7266 15.4584 16.9274L5.73803 7.58985C5.3241 7.20257 4.86734 6.90853 4.36776 6.70773C3.86818 6.50692 3.34005 6.40652 2.78337 6.40652ZM10.2771 17.1641C9.84886 17.1641 9.44206 17.0852 9.05667 16.9274C8.67128 16.7696 8.31444 16.5473 7.98614 16.2604L1.02771 9.91348C0.756507 9.66964 0.535264 9.39367 0.36398 9.08558C0.192695 8.77748 0.0713686 8.45819 0 8.12772H2.78337C3.11167 8.12772 3.4294 8.1851 3.73657 8.29984C4.04374 8.41459 4.31837 8.59388 4.56045 8.83772L13.2103 17.1641H10.2771Z" fill="#D9D9D9"/>
</svg>
