<svg width="33" height="32" viewBox="0 0 33 32" fill="none" xmlns="http://www.w3.org/2000/svg">
<path d="M14.8671 8.16947C15.2111 7.50923 15.2106 6.68559 14.8016 6.00297C14.1694 4.948 12.8029 4.60553 11.748 5.23768C10.693 5.86982 10.3505 7.23631 10.9827 8.29127C11.3946 8.97867 12.1178 9.36276 12.8622 9.37083L13.4049 16.4804C13.4911 17.6095 12.5133 18.5327 11.391 18.3813L5.09829 17.5263C5.14532 17.0635 5.05112 16.5815 4.79368 16.1518C4.16154 15.0969 2.79505 14.7544 1.74009 15.3865C0.685121 16.0187 0.342655 17.3852 0.9748 18.4401C1.60694 19.4951 2.97343 19.8376 4.0284 19.2054L4.06181 19.1854L13.4344 29.879C14.5665 31.1729 16.4665 31.4746 17.9463 30.5879L31.1787 22.6589C32.6538 21.7751 33.2866 19.9621 32.6815 18.346L27.6721 5.03794L27.7055 5.01792C28.7604 4.38577 29.1029 3.01929 28.4708 1.96432C27.8386 0.909356 26.4721 0.566889 25.4172 1.19903C24.3622 1.83118 24.0197 3.19766 24.6519 4.25263C24.9093 4.68225 25.2899 4.99265 25.7203 5.16946L23.5064 11.1216C23.1107 12.1827 21.8354 12.6095 20.8804 12.001L14.8671 8.16947Z" fill="#FD6C01"/>
</svg>
