<svg width="145" height="17" viewBox="0 0 145 17" fill="none" xmlns="http://www.w3.org/2000/svg">
    <path d="M28.291 10.0898V10.7344H24.668V13.791H23.916V10.7344H20.3418V10.0898H28.291ZM24.2969 5.46094C26.123 5.46094 27.3535 6.19336 27.3535 7.375C27.3535 8.52734 26.123 9.25977 24.2969 9.25977C22.4707 9.25977 21.2402 8.52734 21.2402 7.375C21.2402 6.19336 22.4707 5.46094 24.2969 5.46094ZM24.2969 6.08594C22.9395 6.08594 22.0215 6.59375 22.0312 7.375C22.0215 8.14648 22.9395 8.64453 24.2969 8.64453C25.6445 8.64453 26.5723 8.14648 26.5723 7.375C26.5723 6.59375 25.6445 6.08594 24.2969 6.08594ZM36.1621 5.10938V13.8105H35.4004V5.10938H36.1621ZM33.5254 5.91992V9.00586H30.2832V11.0566C31.7236 11.0566 33.0078 10.9932 34.5605 10.7441L34.6387 11.3887C33.0371 11.6426 31.7188 11.7012 30.2246 11.7012H29.502V8.38086H32.7539V6.55469H29.4824V5.91992H33.5254ZM44.3555 5.10938V8.64453H45.7617V9.28906H44.3555V13.791H43.5938V5.10938H44.3555ZM42.1094 6.04688C42.1094 8.50781 40.957 10.7441 38.125 12.1406L37.6953 11.5352C39.9414 10.417 41.1621 8.74707 41.3379 6.69141H38.0957V6.04688H42.1094ZM53.4863 5.4707V6.0957H50.7324C50.7422 7.08203 52.2168 7.86328 53.75 8.03906L53.4668 8.64453C52.0459 8.46387 50.7129 7.8291 50.2344 6.85742C49.7607 7.8291 48.4326 8.46387 47.0117 8.64453L46.7285 8.03906C48.252 7.86328 49.7168 7.08203 49.7363 6.0957H47.002V5.4707H53.4863ZM54.2188 9.47461V10.1094H46.2793V9.47461H49.8535V8.15625H50.6055V9.47461H54.2188ZM53.2129 10.9688V13.791H52.4414V11.5938H47.1582V10.9688H53.2129ZM62.832 9.68945V10.3145H54.9219V9.68945H62.832ZM61.9531 12.9609V13.6055H55.9473V11.0762H56.7188V12.9609H61.9531ZM58.877 5.42188C60.7422 5.41211 61.9434 6.05664 61.9434 7.14062C61.9434 8.22461 60.7422 8.86914 58.877 8.86914C56.9922 8.86914 55.8008 8.22461 55.8008 7.14062C55.8008 6.05664 56.9922 5.41211 58.877 5.42188ZM58.877 6.03711C57.4805 6.03711 56.582 6.45703 56.5918 7.14062C56.582 7.82422 57.4805 8.24414 58.877 8.24414C60.2637 8.24414 61.1621 7.82422 61.1621 7.14062C61.1621 6.45703 60.2637 6.03711 58.877 6.03711ZM70.5176 5.64648V6.34961H72.5V5.10938H73.2617V10.1094H72.5V8.5957H70.5176V9.32812H66.4844V5.64648H70.5176ZM67.2461 6.26172V8.72266H69.7656V6.26172H67.2461ZM70.8984 11.291C70.8887 12.1406 72.2949 12.9805 73.7793 13.166L73.5156 13.752C72.2119 13.5664 71.0156 12.9561 70.5078 12.1504C69.9805 12.9756 68.7598 13.5811 67.4512 13.752L67.1875 13.166C68.6816 13 70.1172 12.1699 70.1172 11.291H67.5391V10.6855H70.1172V9.8457H70.8984V10.6855H73.4668V11.291H70.8984ZM70.5176 7.99023H72.5V6.96484H70.5176V7.99023ZM84.4238 5.10938V9.57227H83.6523V7.84375H81.7285V7.20898H83.6523V5.10938H84.4238ZM81.6602 5.53906C81.6602 7.69727 80.1367 9.12305 77.6367 9.75781L77.3633 9.12305C79.4434 8.62012 80.6885 7.56543 80.8496 6.17383H77.8125V5.53906H81.6602ZM84.4238 9.94336V12.0625H79.5801V13.0781H84.7168V13.7129H78.8184V11.4766H83.6523V10.5684H78.7988V9.94336H84.4238ZM89.8242 5.30469C91.709 5.30469 92.8906 5.91016 92.8906 6.95508C92.8906 7.98047 91.709 8.57617 89.8242 8.57617C87.9395 8.57617 86.748 7.98047 86.748 6.95508C86.748 5.91016 87.9395 5.30469 89.8242 5.30469ZM89.8242 5.91992C88.418 5.91992 87.5293 6.31055 87.5391 6.95508C87.5293 7.58984 88.418 7.96094 89.8242 7.9707C91.2109 7.96094 92.1094 7.58984 92.1094 6.95508C92.1094 6.31055 91.2109 5.91992 89.8242 5.91992ZM92.8125 10.8223V13.6738H86.8359V10.8223H92.8125ZM87.5977 11.4375V13.0488H92.0605V11.4375H87.5977ZM93.7793 9.32812V9.96289H85.8691V9.32812H93.7793ZM104.219 5.10938V9.57227H103.447V7.84375H101.523V7.20898H103.447V5.10938H104.219ZM101.455 5.53906C101.455 7.69727 99.9316 9.12305 97.4316 9.75781L97.1582 9.12305C99.2383 8.62012 100.483 7.56543 100.645 6.17383H97.6074V5.53906H101.455ZM104.219 9.94336V12.0625H99.375V13.0781H104.512V13.7129H98.6133V11.4766H103.447V10.5684H98.5938V9.94336H104.219ZM108.652 10.9297C108.652 11.7061 109.062 12.5264 109.893 13C110.723 12.4824 111.152 11.5986 111.152 10.9297V10.4023H111.904V10.9297C111.904 11.8281 112.549 12.7266 113.682 13.1074L113.281 13.6836C112.417 13.3711 111.812 12.7607 111.523 12.0234C111.245 12.7363 110.713 13.4053 109.902 13.752C109.067 13.4346 108.535 12.79 108.271 12.0625C107.959 12.7607 107.363 13.3662 106.533 13.6836L106.152 13.1074C107.256 12.707 107.91 11.7695 107.92 10.9297V10.4023H108.652V10.9297ZM108.057 5.60742C109.199 5.60742 110.093 6.29102 110.264 7.29688H112.09V5.10938H112.861V10.0703H112.09V7.93164H110.273C110.122 8.97168 109.219 9.66992 108.057 9.66992C106.758 9.66992 105.811 8.83984 105.811 7.63867C105.811 6.44727 106.758 5.60742 108.057 5.60742ZM108.057 6.26172C107.188 6.25195 106.543 6.82812 106.553 7.63867C106.543 8.43945 107.188 9.02539 108.057 9.03516C108.906 9.02539 109.551 8.43945 109.551 7.63867C109.551 6.82812 108.906 6.25195 108.057 6.26172ZM118.262 5.26562C120.195 5.26562 121.328 5.79297 121.328 6.75977C121.328 7.74609 120.195 8.27344 118.262 8.2832C116.328 8.27344 115.186 7.74609 115.186 6.75977C115.186 5.79297 116.328 5.26562 118.262 5.26562ZM118.262 5.8418C116.816 5.8418 115.977 6.19336 115.986 6.75977C115.977 7.36523 116.816 7.69727 118.262 7.69727C119.697 7.69727 120.547 7.36523 120.547 6.75977C120.547 6.19336 119.697 5.8418 118.262 5.8418ZM122.217 8.86914V9.49414H114.307V8.86914H122.217ZM121.201 10.2461V12.1895H116.045V13.0879H121.465V13.6934H115.283V11.623H120.449V10.832H115.264V10.2461H121.201ZM129.824 5.10938V8.69336H131.143V9.33789H129.824V13.791H129.053V5.10938H129.824ZM125.586 6.05664C125.576 8.12695 125.107 10.1582 123.535 11.8281L122.92 11.3887C124.233 10.0459 124.761 8.42969 124.863 6.70117H123.193V6.05664H125.586ZM127.969 6.05664C127.959 8.11719 127.656 10.5098 126.035 12.4043L125.41 11.9746C126.768 10.4414 127.178 8.5127 127.246 6.70117H125.859V6.05664H127.969ZM139.541 12.0332V12.6777H131.592V12.0332H133.564V9.68945C132.822 9.30371 132.373 8.67871 132.373 7.89258C132.373 6.54492 133.691 5.66602 135.547 5.65625C137.402 5.66602 138.721 6.54492 138.721 7.89258C138.721 8.66406 138.286 9.28418 137.568 9.66992V12.0332H139.541ZM135.547 6.29102C134.121 6.28125 133.115 6.92578 133.115 7.89258C133.115 8.85938 134.121 9.51367 135.547 9.51367C136.963 9.51367 137.979 8.85938 137.979 7.89258C137.979 6.92578 136.963 6.28125 135.547 6.29102ZM134.316 12.0332H136.797V9.96289C136.421 10.0654 136.001 10.1191 135.547 10.1191C135.103 10.1191 134.688 10.0703 134.316 9.97266V12.0332ZM141.621 10.959C141.631 9.65039 142.031 9.25 142.705 8.83984C143.105 8.5957 143.418 8.20508 143.418 7.6582C143.418 6.99414 142.9 6.57422 142.256 6.57422C141.699 6.57422 141.143 6.90625 141.084 7.70703H140.195C140.244 6.52539 141.143 5.83203 142.256 5.83203C143.477 5.83203 144.277 6.62305 144.277 7.69727C144.277 8.45898 143.916 8.99609 143.311 9.36719C142.705 9.73828 142.48 10.1094 142.461 10.959V11.0078H141.621V10.959ZM142.07 13.0586C141.729 13.0586 141.436 12.7754 141.445 12.4238C141.436 12.082 141.729 11.7988 142.07 11.7988C142.412 11.7988 142.695 12.082 142.695 12.4238C142.695 12.7754 142.412 13.0586 142.07 13.0586Z" fill="black"/>
    <path d="M20 14.5967H144.678V15.2754H20V14.5967Z" fill="black"/>
    <path d="M2.78337 6.24245H0.0428211C0.099916 6.04165 0.174996 5.85145 0.26806 5.67187C0.361125 5.49229 0.471603 5.31673 0.599496 5.14518L3.89672 0.713073C4.13938 0.383175 4.46425 0.164295 4.87133 0.0564326C5.27842 -0.0514297 5.66724 -0.00467033 6.03778 0.196711L6.63728 0.497922C6.93703 0.6557 7.16912 0.870851 7.33355 1.14338C7.49798 1.4159 7.57991 1.71711 7.57934 2.04701V3.85428L9.16373 3.44549C9.59194 3.33074 10.0059 3.38467 10.4055 3.60728C10.8052 3.82989 11.0764 4.14889 11.2191 4.56428L12.6108 8.78123L16.2506 12.4388C16.5361 12.7257 16.7325 13.0341 16.8398 13.3639C16.9472 13.6938 17.0006 14.0453 17 14.4182C17 14.9489 16.8573 15.4222 16.5718 15.8382C16.2863 16.2541 15.9152 16.5625 15.4584 16.7633L5.73803 7.42578C5.3241 7.03851 4.86734 6.74447 4.36776 6.54366C3.86818 6.34286 3.34005 6.24245 2.78337 6.24245ZM10.2771 17C9.84886 17 9.44206 16.9211 9.05667 16.7633C8.67128 16.6056 8.31444 16.3832 7.98614 16.0964L1.02771 9.74941C0.756507 9.50558 0.535264 9.22961 0.36398 8.92151C0.192695 8.61342 0.0713686 8.29413 0 7.96366H2.78337C3.11167 7.96366 3.4294 8.02103 3.73657 8.13578C4.04374 8.25053 4.31837 8.42982 4.56045 8.67366L13.2103 17H10.2771Z" fill="#D9D9D9"/>
</svg>
